Coordinates
version=1
nRows=11
nColumns=63
inDegrees=yes

Units are S.I. units (second, meters, Newtons, ...)
If the header above contains a line with 'inDegrees', this indicates whether rotational values are in degrees (yes) or radians (no).

endheader
time	pelvis_tilt	pelvis_list	pelvis_rotation	pelvis_tx	pelvis_ty	pelvis_tz	hip_flexion_r	hip_adduction_r	hip_rotation_r	knee_angle_r	knee_angle_r_beta	ankle_angle_r	subtalar_angle_r	mtp_angle_r	hip_flexion_l	hip_adduction_l	hip_rotation_l	knee_angle_l	knee_angle_l_beta	ankle_angle_l	subtalar_angle_l	mtp_angle_l	L5_S1_Flex_Ext	L5_S1_Lat_Bending	L5_S1_axial_rotation	L4_L5_Flex_Ext	L4_L5_Lat_Bending	L4_L5_axial_rotation	L3_L4_Flex_Ext	L3_L4_Lat_Bending	L3_L4_axial_rotation	L2_L3_Flex_Ext	L2_L3_Lat_Bending	L2_L3_axial_rotation	L1_L2_Flex_Ext	L1_L2_Lat_Bending	L1_L2_axial_rotation	L1_T12_Flex_Ext	L1_T12_Lat_Bending	L1_T12_axial_rotation	Abs_r3	Abs_r2	Abs_r1	Abs_t1	Abs_t2	neck_flexion	neck_bending	neck_rotation	arm_flex_r	arm_add_r	arm_rot_r	elbow_flex_r	pro_sup_r	wrist_flex_r	wrist_dev_r	arm_flex_l	arm_add_l	arm_rot_l	elbow_flex_l	pro_sup_l	wrist_flex_l	wrist_dev_l
4.083333	-1.033465	-2.628065	92.303310	0.203366	0.650443	0.694878	11.163068	1.215048	-7.625122	7.634387	0.133245	26.641254	7.131710	0.000000	9.298916	-1.201354	-11.885821	7.037366	0.122825	24.842881	16.683626	0.000000	-0.095426	0.360378	0.088943	-0.177216	0.479303	0.094502	-0.156776	0.876223	0.094502	-0.109063	0.876223	0.077825	-0.088613	0.734883	0.072266	-0.054527	0.558226	0.066707	-0.681621	4.076668	0.494676	0.000000	0.000000	21.561964	1.948939	12.010431	9.364563	-12.419151	118.903928	11.723247	23.041074	7.198825	-5.633589	-3.838644	-15.893240	29.187755	49.214213	89.098346	-0.050618	26.371254
4.100000	-1.305100	-2.644810	92.573973	0.204913	0.650182	0.694785	10.518706	1.028464	-7.393141	6.648617	0.116040	25.576357	6.787248	0.000000	9.345540	-0.977213	-11.844047	7.065837	0.123322	24.765724	16.671401	0.000000	-0.093440	0.329756	0.116303	-0.173527	0.438575	0.123572	-0.153513	0.801768	0.123572	-0.106793	0.801768	0.101765	-0.086768	0.672438	0.094496	-0.053392	0.510792	0.087227	-0.667433	3.730263	0.646842	0.000000	0.000000	21.682299	1.565655	12.061573	9.235977	-13.643351	110.083182	15.123043	31.260201	6.643245	-3.169281	-3.390382	-16.689390	30.804692	49.890998	89.151897	1.773517	27.946447
4.116667	-1.572961	-2.626066	92.806092	0.206493	0.649867	0.694509	9.841604	0.857684	-6.961429	5.694593	0.099389	24.513442	6.131154	0.000000	9.334347	-0.762790	-11.829644	7.083685	0.123634	24.730135	16.652753	0.000000	-0.090666	0.299399	0.151871	-0.168375	0.398200	0.161363	-0.148955	0.727958	0.161363	-0.103622	0.727958	0.132887	-0.084192	0.610534	0.123395	-0.051806	0.463769	0.113903	-0.647616	3.386858	0.844662	0.000000	0.000000	21.638798	1.278882	12.159345	9.158929	-14.935528	101.181727	18.664320	39.960305	5.848969	-0.520468	-2.989633	-17.444683	32.229968	50.524693	89.217326	3.729102	29.655143
4.133333	-1.814449	-2.564963	93.000335	0.208063	0.649509	0.694051	9.142851	0.722692	-6.319995	4.790842	0.083616	23.483227	5.162677	0.000000	9.266426	-0.581717	-11.842634	7.101277	0.123941	24.735117	16.630550	0.000000	-0.088418	0.273565	0.200952	-0.164200	0.363842	0.213511	-0.145261	0.665147	0.213511	-0.101052	0.665147	0.175833	-0.082105	0.557855	0.163273	-0.050522	0.423753	0.150714	-0.631558	3.094627	1.117633	0.000000	0.000000	21.395264	1.096379	12.359259	9.053065	-16.273262	92.346023	22.281544	48.883051	4.999409	2.475696	-2.609447	-18.142097	33.574372	51.105379	89.279467	5.477998	31.263194
4.150000	-2.016922	-2.475824	93.185705	0.209607	0.649102	0.693380	8.444099	0.631570	-5.596865	3.945280	0.068858	22.555912	4.041784	0.000000	9.167876	-0.446379	-11.856158	7.135604	0.124540	24.791684	16.619564	0.000000	-0.085182	0.253338	0.251293	-0.158191	0.336940	0.266998	-0.139945	0.615967	0.266998	-0.097354	0.615967	0.219881	-0.079100	0.516608	0.204175	-0.048673	0.392421	0.188470	-0.608443	2.865815	1.397615	0.000000	0.000000	20.944286	1.084671	12.748997	8.904128	-17.606441	83.995868	25.821616	57.730440	4.142133	5.638433	-2.342199	-18.733692	34.620929	51.666267	89.341603	6.938196	32.597559
4.166667	-2.175969	-2.354847	93.328694	0.211163	0.648677	0.692505	7.748183	0.597498	-4.735757	3.152702	0.055025	21.743999	2.766740	0.000000	9.040041	-0.367101	-11.893190	7.202763	0.125712	24.906808	16.600144	0.000000	-0.082396	0.239704	0.321726	-0.153018	0.318807	0.341834	-0.135369	0.582817	0.341834	-0.094171	0.582817	0.281511	-0.076513	0.488805	0.261403	-0.047081	0.371302	0.241295	-0.588550	2.711582	1.789345	0.000000	0.000000	20.300443	1.192901	13.228166	8.589215	-18.883084	75.851545	29.270943	66.344662	3.402041	8.977774	-2.077325	-19.241529	35.634085	52.137790	89.382925	7.937903	33.352453
4.183333	-2.293550	-2.215478	93.474030	0.212707	0.648224	0.691453	7.087245	0.603971	-3.815269	2.451911	0.042794	21.086146	1.391167	0.000000	8.914481	-0.343526	-11.935759	7.325879	0.127861	25.081886	16.626808	0.000000	-0.080604	0.231012	0.387808	-0.149690	0.307246	0.412046	-0.132424	0.561683	0.412046	-0.092122	0.561683	0.339332	-0.074849	0.471080	0.315094	-0.046057	0.357838	0.290856	-0.575746	2.613256	2.156869	0.000000	0.000000	19.500432	1.541257	13.896217	8.152681	-20.013251	68.398535	32.465567	74.508874	2.931275	12.302981	-1.982499	-19.586757	36.154855	52.644330	89.421349	8.306707	33.594984
4.200000	-2.388449	-2.065132	93.591174	0.214303	0.647774	0.690262	6.465327	0.641561	-2.801555	1.829185	0.031925	20.563318	-0.076541	0.000000	8.798674	-0.361688	-12.026773	7.512215	0.131113	25.301856	16.689457	0.000000	-0.079900	0.224126	0.464980	-0.148383	0.298088	0.494041	-0.131268	0.544941	0.494041	-0.091318	0.544941	0.406857	-0.074195	0.457038	0.377796	-0.045655	0.347172	0.348735	-0.570720	2.535361	2.586077	0.000000	0.000000	18.588013	2.048318	14.572169	7.544629	-20.929801	61.620087	35.328231	81.795216	2.614197	15.471795	-1.950433	-19.822874	36.431273	53.131743	89.437966	8.082648	33.159024
4.216667	-2.483675	-1.922912	93.724331	0.215928	0.647327	0.688959	5.902674	0.677604	-1.936049	1.297930	0.022653	20.233779	-1.338896	0.000000	8.718948	-0.384806	-12.057022	7.764111	0.135509	25.525692	16.685739	0.000000	-0.079624	0.215037	0.541580	-0.147870	0.285999	0.575428	-0.130814	0.522841	0.575428	-0.091002	0.522841	0.473882	-0.073939	0.438504	0.440033	-0.045497	0.333093	0.406185	-0.568747	2.432543	3.012103	0.000000	0.000000	17.631037	2.743356	15.214605	6.739590	-21.506792	55.551508	37.712458	88.002411	2.585700	18.283316	-2.030196	-19.946090	36.331978	53.661476	89.436012	7.248828	32.084361
4.233333	-2.580035	-1.792291	93.884829	0.217522	0.646919	0.687603	5.416031	0.698235	-1.143956	0.890312	0.015539	20.033740	-2.553236	0.000000	8.684233	-0.407230	-12.010872	8.083695	0.141087	25.730931	16.627988	0.000000	-0.080568	0.203833	0.602947	-0.149623	0.271097	0.640631	-0.132366	0.495599	0.640631	-0.092081	0.495599	0.527578	-0.074816	0.415655	0.489894	-0.046037	0.315737	0.452210	-0.575491	2.305795	3.353408	0.000000	0.000000	16.650463	3.623839	15.839305	5.913927	-21.775096	51.071969	39.481276	91.895736	2.708057	20.407972	-2.257802	-19.922886	35.762951	54.247682	89.430621	5.724062	30.518632
4.250000	-2.696402	-1.679683	94.073442	0.219101	0.646590	0.686176	4.994315	0.686533	-0.457881	0.582374	0.010164	19.927418	-3.677128	0.000000	8.687881	-0.408161	-11.912611	8.447180	0.147431	25.884848	16.530866	0.000000	-0.081222	0.188615	0.649272	-0.150838	0.250857	0.689851	-0.133440	0.458597	0.689851	-0.092829	0.458597	0.568113	-0.075423	0.384623	0.527533	-0.046410	0.292164	0.486954	-0.580162	2.133646	3.611056	0.000000	0.000000	15.636249	4.627193	16.447324	5.096777	-21.662457	48.410780	40.515501	93.223175	3.015887	21.681498	-2.586851	-19.819735	34.884416	54.851022	89.419439	3.724210	28.547530
